<svg viewBox="0 0 560 170" xmlns="http://www.w3.org/2000/svg" role="img" aria-label="Arrastra Onyx desde el Navegador hasta cualquier gráfico">
  <rect width="560" height="170" rx="12" fill="#0e121b"/>
  <rect x="0.5" y="0.5" width="559" height="169" rx="12" fill="none" stroke="#232a3d"/>
  <!-- navegador -->
  <rect x="20" y="20" width="160" height="130" rx="8" fill="#151a26" stroke="#2b3350"/>
  <text x="34" y="42" fill="#8b93a7" font-family="Arial" font-size="12">Navegador</text>
  <text x="34" y="64" fill="#6f7891" font-family="Arial" font-size="11">Asesores Expertos</text>
  <rect x="30" y="74" width="140" height="24" rx="6" fill="#1b2233" stroke="#7c8cff"/><text x="44" y="90" fill="#c9d0e6" font-family="Arial" font-size="12">Onyx</text>
  <!-- flecha arrastre -->
  <g stroke="#7c8cff" stroke-width="2" stroke-dasharray="5 4" fill="none"><path d="M180 90 C 250 90, 260 96, 320 96" marker-end="url(#d1)"/></g>
  <defs><marker id="d1" markerWidth="9" markerHeight="9" refX="6" refY="3" orient="auto"><path d="M0,0 L6,3 L0,6" fill="#7c8cff"/></marker></defs>
  <circle cx="250" cy="93" r="10" fill="rgba(124,140,255,.3)"/>
  <!-- gráfico -->
  <rect x="330" y="20" width="210" height="130" rx="8" fill="#151a26" stroke="#2b3350"/>
  <text x="346" y="42" fill="#8b93a7" font-family="Arial" font-size="12">EURUSD, H1</text>
  <g stroke="#2b3350" stroke-width="2" fill="none"><path d="M346 120 l30 -20 l30 12 l30 -26 l30 18 l30 -10"/></g>
  <g fill="#1d9e75"><rect x="356" y="92" width="7" height="28"/><rect x="416" y="84" width="7" height="30"/></g>
  <circle cx="470" cy="60" r="12" fill="#161b2e" stroke="#7c8cff"/><path d="M470 51 l3 6 h7 l-6 5 l2 7 l-6 -4 l-6 4 l2 -7 l-6 -5 h7 z" fill="#7c8cff"/>
</svg>
